<!-- src/assets/signup-illustration.svg -->
<svg width="720" height="540" viewBox="0 0 720 540" fill="none" xmlns="http://www.w3.org/2000/svg">
  <defs>
    <linearGradient id="g1" x1="0" y1="0" x2="1" y2="1">
      <stop offset="0" stop-color="#10B981"></stop>
      <stop offset="1" stop-color="#38BDF8"></stop>
    </linearGradient>
    <linearGradient id="g2" x1="0" y1="0" x2="1" y2="1">
      <stop offset="0" stop-color="#22D3EE" stop-opacity=".9"></stop>
      <stop offset="1" stop-color="#A78BFA" stop-opacity=".9"></stop>
    </linearGradient>
    <filter id="blur" x="-20%" y="-20%" width="140%" height="140%">
      <feGaussianBlur stdDeviation="25"></feGaussianBlur>
    </filter>
    <filter id="soft" x="-10%" y="-10%" width="120%" height="120%">
      <feDropShadow dx="0" dy="8" stdDeviation="16" flood-opacity=".2"></feDropShadow>
    </filter>
  </defs>

  <!-- fond -->
  <rect width="720" height="540" rx="32" fill="url(#g1)" opacity=".25"></rect>
  <circle cx="620" cy="80" r="90" fill="url(#g2)" opacity=".25" filter="url(#blur)"></circle>
  <circle cx="100" cy="460" r="120" fill="#34D399" opacity=".18" filter="url(#blur)"></circle>

  <!-- carte glossy -->
  <g filter="url(#soft)">
    <rect x="120" y="80" width="480" height="340" rx="28" fill="white" opacity=".85"></rect>
    <rect x="140" y="100" width="440" height="300" rx="22" fill="white"></rect>
  </g>

  <!-- vignette centrale -->
  <rect x="220" y="140" width="280" height="190" rx="18" fill="url(#g1)"></rect>
  <circle cx="360" cy="210" r="44" fill="white" opacity=".9"></circle>
  <circle cx="360" cy="210" r="26" fill="url(#g2)"></circle>

  <!-- bulles UI -->
  <rect x="170" y="120" width="30" height="30" rx="8" fill="#10B981"></rect>
  <rect x="520" y="150" width="30" height="30" rx="8" fill="#60A5FA"></rect>
  <rect x="520" y="360" width="22" height="22" rx="6" fill="#34D399"></rect>
  <rect x="210" y="360" width="22" height="22" rx="6" fill="#93C5FD"></rect>

  <!-- slider dots -->
  <circle cx="320" cy="396" r="4" fill="#94A3B8"></circle>
  <circle cx="360" cy="396" r="6" fill="#10B981"></circle>
  <circle cx="400" cy="396" r="4" fill="#94A3B8"></circle>
</svg>
